<svg width="77" height="60" viewBox="0 0 77 60" fill="none" xmlns="http://www.w3.org/2000/svg">
<g id="Quotation mark">
<path id="&#226;&#128;&#156;" d="M34.2735 46.3248C34.2735 49.9715 32.792 53.1624 29.8291 55.8974C26.9231 58.6325 23.4758 60 19.4872 60C13.2194 60 8.40456 57.9202 5.04274 53.7607C1.68091 49.6011 0 43.8462 0 36.4957C0 29.6581 2.87749 22.7635 8.63248 15.812C14.4444 8.8604 21.4245 3.58974 29.5726 0L33.3333 6.06838C26.8946 9.20228 21.8519 12.849 18.2051 17.0085C14.5584 21.1681 12.4501 26.2108 11.8803 32.1368H16.6667C20.1994 32.1368 23.0769 32.5356 25.2991 33.3333C27.5214 34.1311 29.3162 35.2422 30.6838 36.6667C31.9943 38.0342 32.906 39.5442 33.4188 41.1966C33.9886 42.849 34.2735 44.5584 34.2735 46.3248ZM76.4103 46.3248C76.4103 49.9715 74.9288 53.1624 71.9658 55.8974C69.0598 58.6325 65.6125 60 61.6239 60C55.3561 60 50.5413 57.9202 47.1795 53.7607C43.8177 49.6011 42.1367 43.8462 42.1367 36.4957C42.1367 29.6581 45.0142 22.7635 50.7692 15.812C56.5812 8.8604 63.5613 3.58974 71.7094 0L75.4701 6.06838C69.0313 9.20228 63.9886 12.849 60.3419 17.0085C56.6952 21.1681 54.5869 26.2108 54.0171 32.1368H58.8034C62.3362 32.1368 65.2137 32.5356 67.4359 33.3333C69.6581 34.1311 71.453 35.2422 72.8205 36.6667C74.1311 38.0342 75.0427 39.5442 75.5556 41.1966C76.1254 42.849 76.4103 44.5584 76.4103 46.3248Z" fill="#A6876A"/>
</g>
</svg>
